# xmcd
#
# Track frame offsets: 
#        150
#        12043
#        25410
#        43145
#        84955
#        105432
#        127357
#        158107
#        193233
#        199517
#        219769
#
# Disc length: 3520 seconds
#
# Revision: 1
# Processed by: cddbd v1.5.2PL0 Copyright (c) Steve Scherf et al.
# Submitted via: ExactAudioCopy v0.99pb3
#
DISCID=8c0dbe0b
DTITLE=Ансамбль 4'33" - Сердца 4х33х
DYEAR=1998
DGENRE=Progressive Rock
TTITLE0=Микрокосмос
TTITLE1=Кинотанцы
TTITLE2=4.33 вариации на тему Заппы
TTITLE3=Музыка, постоянно меняющая свое название
TTITLE4=Джазок
TTITLE5=Музыка №6
TTITLE6=Складановски
TTITLE7=Камаринская
TTITLE8=Ре-ми-кс
TTITLE9=Блюзз
TTITLE10=Музыка, изменившаяся сама, но не сменившая названия
EXTD=YEAR: 1998
EXTT0=
EXTT1=
EXTT2=
EXTT3=
EXTT4=
EXTT5=
EXTT6=
EXTT7=
EXTT8=
EXTT9=
EXTT10=
PLAYORDER=
